<svg width="146" height="33" viewBox="0 0 146 33" fill="none" xmlns="http://www.w3.org/2000/svg">
<path d="M32.2497 5.08562C34.2066 5.01399 36.7702 5.03985 38.722 5.10543C39.093 5.67407 39.5638 6.77139 39.8574 7.41392C40.4509 8.72704 41.0523 10.0367 41.6613 11.3428C44.867 18.2682 48.0307 25.2131 51.1519 32.177C49.4063 32.0501 46.2488 32.2137 44.3157 32.1864C43.5512 30.4071 42.6678 28.1813 41.819 26.4825L38.9837 26.4934L29.0625 26.4879C28.4778 28.1673 27.4292 30.5544 26.6749 32.1816C24.4578 32.2038 22.2403 32.1996 20.0233 32.169C21.8794 27.6616 24.1902 23.0335 26.1784 18.5461C27.4572 15.6154 28.7573 12.6941 30.0789 9.78245C30.7188 8.35891 31.5224 6.42997 32.2497 5.08562ZM31.1744 21.525C32.5677 21.5283 34.0083 21.5511 35.3976 21.5322C36.8017 21.526 38.3166 21.5467 39.7117 21.5021C39.4808 20.7021 35.6387 11.6107 35.4535 11.4324C35.0125 12.1714 33.9602 14.8081 33.5916 15.7676C32.854 17.688 31.911 19.6517 31.1744 21.525Z" fill="#212D3E"/>
<path d="M64.8686 4.69029C65.1531 4.65401 65.8997 4.6431 66.199 4.64805C69.604 4.70507 72.7444 5.53401 75.466 7.64442C76.0627 8.10717 76.6913 8.77784 77.2192 9.31533C76.077 10.4493 74.3087 12.1082 73.101 13.1495C67.0507 6.39991 56.7038 11.0684 57.97 19.9973C58.9093 26.6198 66.8115 29.2638 71.7574 25.1627C72.2148 24.7835 72.7838 23.9894 73.2924 23.9108L73.5853 24.1255C74.8399 25.1491 76.0795 26.3883 77.4231 27.4798C72.5908 33.6105 63.2281 34.0767 57.0598 29.7589C49.0688 24.1652 49.7207 11.1816 58.3677 6.56533C60.6894 5.32594 62.2689 4.9825 64.8686 4.69029Z" fill="#212D3E"/>
<path d="M0.512688 5.03574L20.6318 5.07042C20.6472 6.75392 20.6461 8.43742 20.6287 10.1208L6.37817 10.1056C6.26563 12.3163 6.30776 14.8138 6.32841 17.0331L19.1614 17.0539L19.1525 19.0246C19.1526 20.0418 19.1747 21.0744 19.1871 22.0928C17.9372 22.0136 16.1569 22.0972 14.8422 22.0969C12.0126 22.0788 9.18289 22.0813 6.35342 22.1041C6.27562 25.3495 6.318 28.9465 6.32891 32.1988C4.3531 32.1313 2.00518 32.196 0 32.1984C0.0460739 30.015 -0.00117458 27.6707 0.00402867 25.469C0.0493473 21.4267 0.0596695 17.3844 0.0349121 13.342C0.0323105 12.219 -0.0784672 5.44576 0.169275 5.07159L0.512688 5.03574Z" fill="#212D3E"/>
<path d="M79.1301 5.07268C86.8301 4.97166 94.8448 5.07108 102.564 5.08032C102.571 6.66701 102.648 8.5365 102.567 10.098L94.04 10.1028C94.0945 11.5718 94.0525 13.2998 94.0534 14.7891V23.5932C94.0576 26.4196 94.0995 29.3875 94.0215 32.2015C92.1332 32.1164 89.6398 32.1968 87.7121 32.2052L87.7046 10.0937C84.8487 10.1197 81.9953 10.0766 79.1385 10.1255L79.1301 5.07268Z" fill="#212D3E"/>
<path d="M135.146 3.63353C135.607 3.38649 136.181 3.14743 136.676 2.97663C139.291 2.07463 141.954 0.832305 144.579 0C144.584 0.800649 144.511 1.55478 144.431 2.35123C144.09 5.76333 143.815 9.17711 143.418 12.5833C143.392 12.8077 143.372 13.0505 143.381 13.2757C142.577 12.4392 141.624 11.3114 140.875 10.4088C139.89 11.6628 138.084 14.6989 137.104 16.1899L128.059 30.0611C127.108 28.7151 125.75 27.1306 124.7 25.7815C123.289 27.8376 121.988 30.1171 120.509 32.1015C120.301 32.3801 115.516 32.2312 114.862 32.253C115.612 31.1229 116.39 29.7705 117.14 28.5929L121.218 22.2947C121.907 21.2149 123.526 18.5503 124.288 17.6691C124.65 18.1666 126.147 20.0302 126.333 20.3686C126.684 20.6802 127.331 21.645 127.598 22.048C129.296 19.5323 130.902 16.8297 132.585 14.2996C132.958 13.7393 134.185 11.7205 134.561 11.2977C135.456 9.66312 136.712 8.10784 137.64 6.54273C136.963 5.70413 135.662 4.40563 135.146 3.63353Z" fill="#606BDE"/>
<path d="M134.561 11.2977C134.735 11.5725 134.927 11.4624 134.81 11.8281C134.55 12.6393 133.909 13.4595 133.132 13.7807C132.258 15.1581 131.465 16.5888 130.591 17.9612C130.333 18.3665 127.788 22.0329 127.618 22.1331C127.258 22.0298 126.374 20.7712 126.333 20.3686C126.684 20.6802 127.331 21.645 127.597 22.048C129.296 19.5323 130.902 16.8297 132.585 14.2996C132.958 13.7393 134.185 11.7205 134.561 11.2977Z" fill="#427EDC"/>
<path d="M106.414 5.06302C108.404 4.98837 110.657 5.05269 112.678 5.05102C112.614 7.8828 112.658 10.8709 112.654 13.713L112.675 32.0138L112.651 32.0721C112.328 32.2827 107.122 32.2027 106.337 32.2026L106.328 19.1617C106.294 14.462 106.323 9.76195 106.414 5.06302Z" fill="#212D3E"/>
<path d="M116.698 5.05756C118.957 5.08452 121.268 4.90264 123.527 5.07746C125.037 5.19435 125.81 6.20039 126.652 7.29804C127.917 8.94552 129.161 10.6079 130.428 12.2525C130.774 12.8035 131.335 13.3826 131.597 13.8432C130.604 15.5428 128.985 17.9889 127.871 19.6338C127.322 19.0089 126.935 18.5002 126.441 17.8287C124.57 15.5385 122.656 12.8854 120.843 10.5337C119.513 8.80789 117.936 6.82302 116.698 5.05756Z" fill="#427EDC"/>
<path d="M130.428 12.2525C130.774 12.8035 131.335 13.3826 131.597 13.8432C130.604 15.5428 128.985 17.9889 127.871 19.6338C127.322 19.0089 126.935 18.5002 126.441 17.8287C126.82 17.6592 130.306 12.6548 130.428 12.2525Z" fill="#3B6EBD"/>
<path d="M136.075 19.7096L137.455 21.4915C139.358 23.9446 141.247 26.4074 143.124 28.8798C143.612 29.5188 145.238 31.738 145.69 32.1801C144.8 32.3157 139.404 32.3205 138.603 32.1654C138.063 32.0611 137.553 31.8376 137.11 31.5112C136.201 30.8372 134.391 28.1313 133.509 27.0349C133.07 26.4758 132.669 26.0657 132.415 25.4064C132.709 24.8181 133.375 23.8417 133.747 23.2617C134.5 22.0631 135.277 20.8789 136.075 19.7096Z" fill="#8357E7"/>
<path d="M136.075 19.7096L137.455 21.4915C136.634 21.8122 134.165 26.0517 133.509 27.0349C133.07 26.4758 132.669 26.0657 132.415 25.4064C132.709 24.8181 133.375 23.8417 133.747 23.2617C134.5 22.0631 135.277 20.8789 136.075 19.7096Z" fill="#6846B8"/>
</svg>
